<?xml version="1.0" standalone="no"?>
<!DOCTYPE svg PUBLIC "-//W3C//DTD SVG 20010904//EN"
 "http://www.w3.org/TR/2001/REC-SVG-20010904/DTD/svg10.dtd">
<svg version="1.0" xmlns="http://www.w3.org/2000/svg"
 width="700.000000pt" height="700.000000pt" viewBox="0 0 700.000000 700.000000"
 preserveAspectRatio="xMidYMid meet">
<metadata>
Created by potrace 1.14, written by Peter Selinger 2001-2017
</metadata>
<g transform="translate(0.000000,700.000000) scale(0.100000,-0.100000)"
fill="#000000" stroke="none">
<path d="M3300 6994 c-172 -15 -283 -28 -406 -49 -1078 -186 -2026 -890 -2516
-1870 -334 -667 -447 -1388 -333 -2121 229 -1459 1366 -2627 2819 -2894 224
-41 374 -54 631 -54 405 0 758 54 1112 173 1209 404 2110 1441 2337 2691 67
369 71 792 11 1176 -176 1120 -885 2084 -1910 2592 -365 181 -752 294 -1175
342 -99 11 -492 21 -570 14z m2452 -2719 c-19 -653 -364 -1308 -900 -1706
-375 -278 -852 -448 -1259 -449 l-93 0 0 -175 0 -175 -396 0 -397 0 6 68 c8
102 35 195 84 290 24 47 42 86 40 88 -1 1 -52 20 -113 42 -741 265 -1303 932
-1444 1717 -22 119 -45 379 -35 395 4 7 795 9 2258 8 l2252 -3 -3 -100z"/>
</g>
</svg>
